<svg width="32" height="32" viewBox="0 0 32 32" fill="none" xmlns="http://www.w3.org/2000/svg">
  <!-- Background circle with gradient -->
  <defs>
    <linearGradient id="logoGradient" x1="0%" y1="0%" x2="100%" y2="100%">
      <stop offset="0%" style="stop-color:#007AFF;stop-opacity:1" />
      <stop offset="100%" style="stop-color:#5856D6;stop-opacity:1" />
    </linearGradient>
  </defs>
  
  <!-- Main calendar body -->
  <rect x="6" y="8" width="20" height="18" rx="3" fill="url(#logoGradient)" stroke="white" stroke-width="1"/>
  
  <!-- Calendar header -->
  <rect x="6" y="8" width="20" height="6" rx="3" fill="white" fill-opacity="0.2"/>
  
  <!-- Calendar rings/binding -->
  <circle cx="10" cy="11" r="1" fill="white" fill-opacity="0.8"/>
  <circle cx="22" cy="11" r="1" fill="white" fill-opacity="0.8"/>
  
  <!-- Calendar grid lines -->
  <line x1="8" y1="16" x2="24" y2="16" stroke="white" stroke-width="0.5" stroke-opacity="0.3"/>
  <line x1="8" y1="20" x2="24" y2="20" stroke="white" stroke-width="0.5" stroke-opacity="0.3"/>
  <line x1="8" y1="24" x2="24" y2="24" stroke="white" stroke-width="0.5" stroke-opacity="0.3"/>
  
  <!-- Vertical grid lines -->
  <line x1="12" y1="14" x2="12" y2="26" stroke="white" stroke-width="0.5" stroke-opacity="0.3"/>
  <line x1="16" y1="14" x2="16" y2="26" stroke="white" stroke-width="0.5" stroke-opacity="0.3"/>
  <line x1="20" y1="14" x2="20" y2="26" stroke="white" stroke-width="0.5" stroke-opacity="0.3"/>
  
  <!-- Calendar event dots -->
  <circle cx="14" cy="18" r="1.5" fill="white"/>
  <circle cx="18" cy="22" r="1.5" fill="white"/>
  <circle cx="22" cy="18" r="1.5" fill="white"/>
  
  <!-- Peek indicator (small arrow/eye) -->
  <path d="M26 12 L30 12 L28 14 Z" fill="white" fill-opacity="0.9"/>
  
  <!-- Subtle shadow -->
  <ellipse cx="16" cy="30" rx="12" ry="2" fill="black" fill-opacity="0.1"/>
</svg> 